<svg width="59" height="9" viewBox="0 0 59 9" fill="none" xmlns="http://www.w3.org/2000/svg">
<path d="M0 8.16V0.224H1.984V1.088H2.272C2.41067 0.821334 2.64 0.592001 2.96 0.400001C3.28 0.197334 3.70133 0.0960007 4.224 0.0960007C4.78933 0.0960007 5.24267 0.208001 5.584 0.432001C5.92533 0.645334 6.18667 0.928 6.368 1.28H6.656C6.83733 0.938667 7.09333 0.656001 7.424 0.432001C7.75467 0.208001 8.224 0.0960007 8.832 0.0960007C9.32267 0.0960007 9.76533 0.202667 10.16 0.416C10.5653 0.618667 10.8853 0.933334 11.12 1.36C11.3653 1.776 11.488 2.304 11.488 2.944V8.16H9.472V3.088C9.472 2.65067 9.36 2.32533 9.136 2.112C8.912 1.888 8.59733 1.776 8.192 1.776C7.73333 1.776 7.376 1.92533 7.12 2.224C6.87467 2.512 6.752 2.928 6.752 3.472V8.16H4.736V3.088C4.736 2.65067 4.624 2.32533 4.4 2.112C4.176 1.888 3.86133 1.776 3.456 1.776C2.99733 1.776 2.64 1.92533 2.384 2.224C2.13867 2.512 2.016 2.928 2.016 3.472V8.16H0Z" fill="#151515"/>
<path d="M16.9679 8.384C16.1785 8.384 15.4799 8.21867 14.8719 7.888C14.2745 7.54667 13.8052 7.072 13.4639 6.464C13.1332 5.84533 12.9679 5.12 12.9679 4.288V4.096C12.9679 3.264 13.1332 2.544 13.4639 1.936C13.7945 1.31733 14.2585 0.842667 14.8559 0.512001C15.4532 0.170667 16.1465 0 16.9359 0C17.7145 0 18.3919 0.176 18.9679 0.528C19.5439 0.869334 19.9919 1.34933 20.3119 1.968C20.6319 2.576 20.7919 3.28533 20.7919 4.096V4.784H15.0159C15.0372 5.328 15.2399 5.77067 15.6239 6.112C16.0079 6.45333 16.4772 6.624 17.0319 6.624C17.5972 6.624 18.0132 6.50133 18.2799 6.256C18.5465 6.01067 18.7492 5.73867 18.8879 5.44L20.5359 6.304C20.3865 6.58133 20.1679 6.88533 19.8799 7.216C19.6025 7.536 19.2292 7.81333 18.7599 8.048C18.2905 8.272 17.6932 8.384 16.9679 8.384ZM15.0319 3.28H18.7439C18.7012 2.82133 18.5145 2.45333 18.1839 2.176C17.8639 1.89867 17.4425 1.76 16.9199 1.76C16.3759 1.76 15.9439 1.89867 15.6239 2.176C15.3039 2.45333 15.1065 2.82133 15.0319 3.28Z" fill="#151515"/>
<path d="M22.2663 8.16V0.224H24.2502V1.088H24.5382C24.6769 0.821334 24.9063 0.592001 25.2263 0.400001C25.5463 0.197334 25.9676 0.0960007 26.4903 0.0960007C27.0556 0.0960007 27.5089 0.208001 27.8503 0.432001C28.1916 0.645334 28.4529 0.928 28.6343 1.28H28.9223C29.1036 0.938667 29.3596 0.656001 29.6903 0.432001C30.0209 0.208001 30.4903 0.0960007 31.0983 0.0960007C31.5889 0.0960007 32.0316 0.202667 32.4263 0.416C32.8316 0.618667 33.1516 0.933334 33.3862 1.36C33.6316 1.776 33.7542 2.304 33.7542 2.944V8.16H31.7383V3.088C31.7383 2.65067 31.6263 2.32533 31.4023 2.112C31.1782 1.888 30.8636 1.776 30.4583 1.776C29.9996 1.776 29.6423 1.92533 29.3863 2.224C29.1409 2.512 29.0183 2.928 29.0183 3.472V8.16H27.0023V3.088C27.0023 2.65067 26.8903 2.32533 26.6663 2.112C26.4422 1.888 26.1276 1.776 25.7222 1.776C25.2636 1.776 24.9063 1.92533 24.6503 2.224C24.4049 2.512 24.2823 2.928 24.2823 3.472V8.16H22.2663Z" fill="#151515"/>
<path d="M39.3941 8.384C38.6048 8.384 37.8955 8.224 37.2661 7.904C36.6368 7.584 36.1408 7.12 35.7781 6.512C35.4155 5.904 35.2341 5.17333 35.2341 4.32V4.064C35.2341 3.21067 35.4155 2.48 35.7781 1.872C36.1408 1.264 36.6368 0.800001 37.2661 0.48C37.8955 0.16 38.6048 0 39.3941 0C40.1835 0 40.8928 0.16 41.5221 0.48C42.1515 0.800001 42.6475 1.264 43.0101 1.872C43.3728 2.48 43.5541 3.21067 43.5541 4.064V4.32C43.5541 5.17333 43.3728 5.904 43.0101 6.512C42.6475 7.12 42.1515 7.584 41.5221 7.904C40.8928 8.224 40.1835 8.384 39.3941 8.384ZM39.3941 6.592C40.0128 6.592 40.5248 6.39467 40.9301 6C41.3355 5.59467 41.5381 5.01867 41.5381 4.272V4.112C41.5381 3.36533 41.3355 2.79467 40.9301 2.4C40.5355 1.99467 40.0235 1.792 39.3941 1.792C38.7755 1.792 38.2635 1.99467 37.8581 2.4C37.4528 2.79467 37.2501 3.36533 37.2501 4.112V4.272C37.2501 5.01867 37.4528 5.59467 37.8581 6C38.2635 6.39467 38.7755 6.592 39.3941 6.592Z" fill="#151515"/>
<path d="M45.095 8.16V0.224H47.079V1.12H47.367C47.4843 0.8 47.6763 0.565334 47.943 0.416C48.2203 0.266667 48.5403 0.192 48.903 0.192H49.863V1.984H48.871C48.359 1.984 47.9377 2.12267 47.607 2.4C47.2763 2.66667 47.111 3.08267 47.111 3.648V8.16H45.095Z" fill="#151515"/>
<path d="M53.3953 8.384C52.8299 8.384 52.3233 8.288 51.8753 8.096C51.4273 7.89333 51.0699 7.60533 50.8033 7.232C50.5473 6.848 50.4193 6.384 50.4193 5.84C50.4193 5.296 50.5473 4.84267 50.8033 4.48C51.0699 4.10667 51.4326 3.82933 51.8913 3.648C52.3606 3.456 52.8939 3.36 53.4913 3.36H55.6673V2.912C55.6673 2.53867 55.5499 2.23467 55.3153 2C55.0806 1.75467 54.7073 1.632 54.1953 1.632C53.6939 1.632 53.3206 1.74933 53.0753 1.984C52.8299 2.208 52.6699 2.50133 52.5953 2.864L50.7393 2.24C50.8673 1.83467 51.0699 1.46667 51.3473 1.136C51.6353 0.794667 52.0139 0.522667 52.4833 0.320001C52.9633 0.106667 53.5446 0 54.2273 0C55.2726 0 56.0993 0.261333 56.7073 0.784C57.3153 1.30667 57.6193 2.064 57.6193 3.056V6.016C57.6193 6.336 57.7686 6.496 58.0673 6.496H58.7073V8.16H57.3633C56.9686 8.16 56.6433 8.064 56.3873 7.872C56.1313 7.68 56.0033 7.424 56.0033 7.104V7.088H55.6993C55.6566 7.216 55.5606 7.38667 55.4113 7.6C55.2619 7.80267 55.0273 7.984 54.7073 8.144C54.3873 8.304 53.9499 8.384 53.3953 8.384ZM53.7473 6.752C54.3126 6.752 54.7713 6.59733 55.1233 6.288C55.4859 5.968 55.6673 5.54667 55.6673 5.024V4.864H53.6353C53.2619 4.864 52.9686 4.944 52.7553 5.104C52.5419 5.264 52.4353 5.488 52.4353 5.776C52.4353 6.064 52.5473 6.29867 52.7713 6.48C52.9953 6.66133 53.3206 6.752 53.7473 6.752Z" fill="#151515"/>
</svg>
